<?xml version="1.0" encoding="utf-8"?>
<!-- Generator: Adobe Illustrator 19.0.0, SVG Export Plug-In . SVG Version: 6.00 Build 0)  -->
<svg version="1.1" id="Слой_1" xmlns="http://www.w3.org/2000/svg" xmlns:xlink="http://www.w3.org/1999/xlink" x="0px" y="0px"
	 viewBox="-2 0 293.4 300" style="enable-background:new -2 0 293.4 300;" xml:space="preserve">
<style type="text/css">
	.st0{fill:#F3DF55;}
</style>
<g>
	<path class="st0" d="M236.6,255.1c0.7,4.5-0.9,9.2-4.8,14.1c-2.7,3.2-6.4,6.8-11,10.8c-4.6,4-8.7,7.1-12.5,9.3
		c-3.7,2.2-7.6,3.2-11.5,3c-2.5,1.2-6.4,2.4-11.7,3.3c-5.3,1-12,1.5-19.9,1.5c-13.6,0.5-30.2-2.8-49.8-9.8
		c-19.6-7.1-40.8-21.1-63.6-42.2c-10.4-8.7-23.1-25.7-38.1-51.1c-15-25.4-19.3-55.4-12.8-90.1c-0.2-4.2,0.7-8.2,3-12.1
		c2.2-3.8,5.2-8.2,8.9-13c3.7-4.8,7.2-8.6,10.4-11.3c9.7-8.2,18.5-7.1,26.4,3.3l37.2,50.5c2.5,4,3.5,8.1,3,12.5
		c-0.5,4.3-2.5,8-5.9,11l-19,14.1c-0.7,0.7-1.6,1.2-2.6,1.5c-2.5,5-2.3,11.5,0.6,19.7c2.8,8.2,11.6,19.7,26.2,34.6
		c9.2,8.9,17,14.9,23.4,18c6.4,3.1,11.5,4.5,15.2,4.3c4.5-0.2,7.7-1.1,9.7-2.6c0.2-1.5,0.9-2.7,1.9-3.7l13.4-19.3
		c2.7-3.5,6.3-5.6,10.6-6.3c4.3-0.7,8.5,0.1,12.5,2.6l52,35.7C232.8,246.7,235.8,250.7,236.6,255.1z M225.6,256.8
		c-0.1-1.4-1.6-2.9-4.3-4.6l-51.7-35.7c-1.5-0.7-3-1.1-4.6-0.9c-1.6,0.1-2.8,0.8-3.5,2l-13.4,19.3c-0.5,0.2-0.7,0.8-0.7,1.7
		c0,0.9-0.6,1.9-1.9,3.2c-1.2,1.2-3.3,2.5-6.3,3.9c-3,1.4-6.8,2-11.5,2c-14.1,0-29.5-8.4-46.1-25.1C65,205.9,55,192.3,51.6,181.9
		c-3.3-10.4-2.8-19.8,1.7-28.2c0.7-1.5,2-2.5,3.7-3l1.1-0.4l19-14.5c1.2-0.7,1.9-1.9,2-3.3c0.1-1.5-0.3-3-1.3-4.5L40.7,77.1
		c-0.7-1-1.6-1.9-2.4-2.8c-0.9-0.9-1.9-1.3-3-1.3c-1.1,0-2.8,0.9-5,2.6c-2.5,2.2-5.4,5.5-8.7,9.8c-3.3,4.3-6,8.1-8,11.3
		c-1.5,2.2-2,4.5-1.5,6.7v1.9c-6.2,32.5-2.3,60.6,11.7,84.4c14,23.8,25.8,39.7,35.5,47.6c21.3,19.8,41.1,33.1,59.5,40
		c18.3,6.8,33.8,10,46.5,9.5c7.9,0,14.2-0.6,19-1.7c4.7-1.1,7.7-2,8.9-2.6c1.2-0.6,2.4-0.9,3.3-0.9c2,0.5,4.1,0,6.3-1.5
		c3-2,6.6-4.8,10.8-8.4c4.2-3.6,7.4-6.7,9.7-9.5C224.9,259.9,225.7,258.2,225.6,256.8z M291.2,229.8c0.7,3.2-0.5,5.6-3.7,7.1
		l-32.7,10.8l-1.9,0.4c-0.7,0-1.6-0.2-2.6-0.7c-1.5-1-2.4-2.4-2.6-4.1l-5.6-32.7c-0.2-3.2,1.2-5.3,4.5-6.3c1.5-0.2,2.8,0.1,4.1,0.9
		c1.2,0.9,2,2,2.2,3.5l3,18.6c7.9-11.4,14-23.7,18.2-36.8c4.2-13.1,6.3-26.8,6.3-40.9c-1-38.7-14.4-70.9-40.1-96.6
		c-25.8-25.8-58-39.2-96.6-40.1c-17.8,0-34.8,3.2-50.7,9.7c-16,6.4-30.4,15.9-43.3,28.2c-1.2,1-2.6,1.4-4.1,1.3
		c-1.5-0.1-2.7-0.7-3.7-1.9c-1-1.1-1.5-2.4-1.5-3.7c0-1.4,0.5-2.7,1.5-3.9C55.9,29.4,71.6,19.3,89,12.4C106.3,5.5,124.5,2,143.6,2
		c41.9,1,76.7,15.4,104.4,43.1c27.7,27.8,42.1,62.6,43.1,104.4c0,14.9-2.2,29.4-6.5,43.5c-4.3,14.1-10.6,27.3-18.8,39.4l18.2-5.9
		C287.3,225.5,289.7,226.6,291.2,229.8z M149.8,118c3.3-3.2,5-7.3,5-12.3c0-3.5-1.1-6.1-3.3-7.8c-2.7-2.2-6.9-3.2-12.6-3
		c-4,0.7-7,2.2-9.1,4.5c-2.1,2.2-3.2,3.5-3.2,3.7c-0.7,1.2-1.9,2-3.3,2.4c-1.5,0.4-2.9,0.2-4.1-0.6c-2.5-1.7-3.2-4.2-2.2-7.4
		c0.2-0.7,2.1-2.9,5.6-6.5c3.5-3.6,8.5-5.9,15.2-6.9c4.2-0.5,8.2-0.2,11.9,0.7c3.7,1,6.8,2.7,9.3,5.2c4.5,4,6.7,9.2,6.7,15.6
		c-0.2,8.4-2.9,15.1-7.8,19.9c-5,4.8-10.2,8.7-15.6,11.7c-4.7,3-8.4,5.6-11,8c-2.6,2.4-3.9,5-3.9,8v1.9H160c1.5,0,2.8,0.5,3.9,1.5
		c1.1,1,1.7,2.3,1.7,3.9c0,1.6-0.6,2.9-1.7,3.9c-1.1,1-2.4,1.5-3.9,1.5h-38.3c-3.2-0.2-5-2.1-5.2-5.6v-7.1
		c0.2-6.2,2.4-11.2,6.3-15.1c4-3.8,8.4-7.2,13.4-10.2C141.9,124.5,146.4,121.2,149.8,118z M214.6,94.9v38.3h5.6
		c1.5,0,2.8,0.5,3.9,1.5c1.1,1,1.7,2.3,1.7,3.9c0,1.6-0.6,2.9-1.7,3.9c-1.1,1-2.4,1.5-3.9,1.5h-5.6v16.4c-0.2,3.5-2,5.3-5.2,5.6
		c-1.5,0-2.8-0.5-3.9-1.5c-1.1-1-1.7-2.4-1.7-4.1V144h-27.5c-3.2-0.2-5-2-5.2-5.2v-5.6c0-1.5,0.4-2.7,1.1-3.7l33.1-38.3
		c1.7-1.7,3.7-2.2,5.9-1.5C213.5,90.7,214.6,92.4,214.6,94.9z M203.8,109.8l-20.1,23.4h20.1V109.8z"/>
</g>
</svg>
