<?xml version="1.0" encoding="utf-8"?>
<!-- Generator: Adobe Illustrator 19.0.0, SVG Export Plug-In . SVG Version: 6.00 Build 0)  -->
<svg version="1.1" id="Слой_1" xmlns="http://www.w3.org/2000/svg" xmlns:xlink="http://www.w3.org/1999/xlink" x="0px" y="0px"
	 viewBox="-2 0 293.4 300" style="enable-background:new -2 0 293.4 300;" xml:space="preserve">
<style type="text/css">
	.st0{fill:#F3DF55;}
</style>
<g>
	<path class="st0" d="M285.6,298.7c-1,0.8-2,1.1-3,1.1c-1,0-2-0.1-3-0.4L215.4,267l-69.9,32.5c-1.5,0.8-3,0.8-4.5,0L71.2,267
		L7,299.4c-2,0.8-3.9,0.4-5.7-1.1c-1.8-1.5-2.5-3.3-2.3-5.3l33.2-128c0.8-1.8,1.9-3,3.4-3.8l27.9-11l4.2,10.2l-25.3,10.2L13,284
		L68.5,256c1.8-0.8,3.4-0.8,4.9,0l69.9,32.1l69.9-32.1c1.8-0.8,3.4-0.8,4.9,0l55.5,27.9l-29.4-113.3l-24.9-10.2l3.8-10.2l27.9,11
		c1.8,0.8,2.9,2,3.4,3.8l33.2,128C288,295,287.4,296.9,285.6,298.7z M111.4,196.5c-16.2-21.3-31.3-46.8-45.1-76.5
		c-5.3-11.3-7.9-23.3-7.9-35.9c0.5-23.9,8.7-43.8,24.7-59.7C99,8.7,119,0.5,142.9,0c23.9,0.5,43.9,8.7,60,24.5
		c16.1,15.9,24.4,35.7,24.9,59.7c0,12.3-2.8,24.4-8.3,36.2c-13.8,29.5-28.8,54.8-44.7,76.1c-16,21.3-25.1,32.9-27.4,34.9
		c-1.3,1.3-2.6,1.9-4.2,1.9c-1.5,0-2.9-0.6-4.2-1.9C136.9,229.5,127.6,217.8,111.4,196.5z M91,32.5C77,46.3,69.8,63.6,69.3,84.2
		c0.2,11.1,2.6,21.5,7.2,31.3c10.8,23.7,23,44.9,36.4,63.6c13.5,18.8,23.6,32,30.4,39.8c6.5-7.8,16.5-21.1,29.8-39.8
		c13.3-18.7,25.4-40,36.3-63.6c4.8-10.1,7.2-20.5,7.2-31.3c-0.5-20.6-7.7-37.9-21.5-51.7c-13.8-13.8-31.2-21-52.1-21.5
		C122.3,11.5,105,18.6,91,32.5z M114.6,111.6c-7.6-7.7-11.5-17.2-11.7-28.5c0.2-11.3,4.2-20.8,11.7-28.3s17-11.5,28.3-11.7
		c11.3,0.3,20.8,4.2,28.5,11.7c7.7,7.6,11.6,17,11.9,28.3c-0.3,11.3-4.2,20.8-11.9,28.5c-7.7,7.7-17.2,11.6-28.5,11.9
		C131.6,123.2,122.1,119.3,114.6,111.6z M122.5,62.7c-5.5,5.5-8.3,12.4-8.3,20.6c0,8.2,2.8,15,8.3,20.4c5.5,5.4,12.4,8.1,20.6,8.1
		c8.2,0,15-2.7,20.4-8.1c5.4-5.4,8.1-12.2,8.1-20.4c0-8.2-2.7-15-8.1-20.6c-5.4-5.5-12.3-8.4-20.6-8.7
		C134.9,54.2,128.1,57.1,122.5,62.7z"/>
</g>
</svg>
