<?xml version="1.0" encoding="utf-8"?>
<!-- Generator: Adobe Illustrator 19.0.0, SVG Export Plug-In . SVG Version: 6.00 Build 0)  -->
<svg version="1.1" id="Слой_1" xmlns="http://www.w3.org/2000/svg" xmlns:xlink="http://www.w3.org/1999/xlink" x="0px" y="0px"
	 viewBox="-2 0 293.4 291.2" style="enable-background:new -2 0 293.4 291.2;" xml:space="preserve">
<style type="text/css">
	.st0{fill:#F3DF55;}
</style>
<g>
	<path class="st0" d="M289.2,104.9c1.5,3.2,2.2,6.4,2.2,9.6v149.3c-0.2,7.9-2.9,14.3-7.9,19.4c-5.1,5-11.4,7.7-19,7.9H25
		c-7.6-0.2-14-2.9-19-7.9c-5.1-5.1-7.7-11.5-7.9-19.4V114.6c0-3.2,0.7-6.4,2.2-9.6c1.5-3.2,3.4-5.8,5.9-7.8L124,6.6
		c5.9-4.4,12.9-6.6,20.9-6.6c8,0,14.8,2.2,20.5,6.6l117.9,90.5C285.7,99.2,287.7,101.7,289.2,104.9z M280.7,114.6
		c0-1.5-0.4-3.1-1.3-4.8c-0.9-1.7-1.8-3-2.8-3.7L158.7,15.1c-3.9-2.7-8.6-4.1-14-4.1c-5.4,0-10.1,1.4-14,4.1L12.8,106.1
		c-1,0.7-1.9,2-2.8,3.7c-0.9,1.7-1.3,3.3-1.3,4.8v149.3c0.2,4.7,1.9,8.6,5,11.8c3.1,3.2,6.8,4.8,11.3,4.8h239.5
		c4.7,0,8.6-1.6,11.6-4.8c3.1-3.2,4.6-7.1,4.6-11.8V114.6z M265.2,117.3c1.5,0.4,2.6,1.2,3.5,2.4c0.9,1.2,1.2,2.6,0.9,4.1
		c-0.2,1.5-1,2.6-2.2,3.3l-101.6,69.5c-3,2-6.3,3.5-10,4.4c-3.7,1-7.4,1.5-11.1,1.5s-7.4-0.5-11.1-1.5c-3.7-1-7-2.5-10-4.4L22,127.1
		c-1.2-0.7-2-1.8-2.2-3.3c-0.2-1.5,0.1-2.8,0.9-4.1c0.9-1.2,2-2,3.5-2.4c1.5-0.4,2.8-0.1,4.1,0.9l40.3,27.3V90.2
		c0-1.5,0.6-2.8,1.7-3.9c1.1-1.1,2.4-1.7,3.9-1.7h141.2c1.5,0,2.8,0.6,3.9,1.7s1.7,2.4,1.7,3.9v55.4l40.3-27.3
		C262.3,117.3,263.7,117,265.2,117.3z M210.8,152.6c-0.5-0.7-0.7-1.7-0.7-3V95.3H79.7v54.3c0,1.2-0.4,2.2-1.1,3l51.4,34.7
		c4.2,2.7,9.1,4.1,14.8,4.1c5.7,0,10.6-1.3,14.8-4.1L210.8,152.6z M186.6,118.8c1.1,1.1,1.7,2.4,1.7,3.9s-0.6,2.8-1.7,3.9
		s-2.4,1.7-3.9,1.7h-76.1c-1.5,0-2.8-0.6-3.9-1.7s-1.7-2.4-1.7-3.9s0.6-2.8,1.7-3.9c1.1-1.1,2.4-1.7,3.9-1.7h76.1
		C184.2,117.1,185.5,117.7,186.6,118.8z M186.6,140.6c1.1,1.1,1.7,2.4,1.7,3.9c0,1.5-0.6,2.7-1.7,3.7c-1.1,1-2.4,1.5-3.9,1.5h-76.1
		c-1.5,0-2.8-0.5-3.9-1.5c-1.1-1-1.7-2.2-1.7-3.7c0-1.5,0.6-2.8,1.7-3.9c1.1-1.1,2.4-1.7,3.9-1.7h76.1
		C184.2,138.9,185.5,139.5,186.6,140.6z"/>
</g>
</svg>
